<?xml version="1.0" standalone="no"?>
<!DOCTYPE svg PUBLIC "-//W3C//DTD SVG 20010904//EN"
 "http://www.w3.org/TR/2001/REC-SVG-20010904/DTD/svg10.dtd">
<svg version="1.0" xmlns="http://www.w3.org/2000/svg"
 width="800.000000pt" height="618.000000pt" viewBox="0 0 800.000000 618.000000"
 preserveAspectRatio="xMidYMid meet">
<metadata>
Created by potrace 1.16, written by Peter Selinger 2001-2019
</metadata>
<g transform="translate(0.000000,618.000000) scale(0.100000,-0.100000)"
fill="#000000" stroke="none">
<path d="M3355 4270 c-73 -30 -96 -132 -42 -188 16 -16 45 -38 65 -48 69 -35
92 -55 92 -78 0 -56 -75 -63 -100 -9 -13 28 -20 33 -53 33 l-38 0 3 -72 c3
-73 3 -73 33 -76 19 -3 33 2 41 13 12 16 14 16 36 1 56 -40 152 -3 176 68 27
83 -13 147 -124 196 -33 15 -64 36 -68 45 -9 25 11 45 46 45 22 0 33 -7 46
-30 13 -24 24 -30 50 -30 l32 0 0 65 0 65 -34 0 c-19 0 -36 -5 -38 -12 -3 -8
-11 -7 -28 5 -26 18 -62 21 -95 7z"/>
<path d="M3682 4220 c-30 -21 -42 -37 -42 -55 0 -18 -5 -25 -20 -25 -16 0 -20
-7 -20 -35 0 -28 4 -35 20 -35 19 0 20 -7 20 -100 0 -115 13 -140 73 -140 62
0 77 9 77 46 0 30 -3 34 -25 34 -25 0 -25 1 -25 80 0 79 0 80 25 80 22 0 25 4
25 35 0 31 -3 35 -25 35 -24 0 -25 3 -25 55 0 30 -4 55 -8 55 -5 0 -28 -14
-50 -30z"/>
<path d="M4283 4218 c-29 -21 -43 -39 -43 -55 0 -16 -6 -23 -20 -23 -16 0 -20
-7 -20 -35 0 -28 4 -35 20 -35 18 0 20 -7 20 -87 0 -51 6 -99 13 -113 17 -33
57 -46 104 -34 33 8 38 13 41 41 3 28 0 32 -25 35 -28 3 -28 4 -31 81 l-3 77
31 0 c28 0 30 3 30 35 0 32 -2 35 -30 35 -30 0 -30 1 -30 55 0 30 -3 55 -7 55
-5 -1 -27 -15 -50 -32z"/>
<path d="M3907 4136 c-75 -28 -89 -60 -30 -69 20 -4 42 -2 49 4 7 6 29 9 50 7
31 -2 39 -8 45 -30 9 -34 4 -38 -30 -25 -40 15 -99 0 -133 -33 -63 -63 -13
-160 82 -160 17 0 41 5 52 11 14 8 23 8 31 0 6 -6 42 -11 79 -11 l68 0 0 40
c0 36 -2 40 -25 40 -24 0 -25 2 -25 74 0 87 -10 119 -44 141 -34 23 -123 28
-169 11z"/>
<path d="M4520 4127 c-79 -41 -112 -142 -71 -217 47 -88 202 -109 279 -38 30
29 28 33 -15 46 -31 10 -39 8 -61 -8 -33 -27 -68 -25 -97 5 -49 48 -37 55 90
55 l115 0 -7 33 c-12 63 -42 107 -86 128 -56 25 -95 24 -147 -4z"/>
<path d="M3433 3369 c-57 -10 -94 -31 -130 -73 -42 -46 -56 -96 -51 -172 8
-124 94 -197 231 -197 97 0 167 36 203 105 20 39 18 46 -22 63 -46 19 -54 19
-54 -1 0 -9 -15 -31 -34 -50 -29 -29 -41 -34 -81 -34 -148 0 -170 238 -26 281
48 14 101 -7 127 -50 16 -28 24 -32 54 -29 l35 3 0 75 0 75 -37 3 c-29 2 -38
0 -38 -12 0 -19 0 -19 -36 -2 -40 19 -91 24 -141 15z"/>
<path d="M4451 3369 c-67 -13 -127 -53 -158 -106 -22 -38 -27 -59 -27 -114 0
-57 4 -74 30 -115 75 -122 281 -146 388 -46 91 85 87 246 -7 329 -54 47 -143
68 -226 52z m124 -101 c32 -25 55 -74 55 -117 0 -46 -28 -108 -58 -127 -30
-20 -89 -22 -121 -5 -77 42 -83 203 -9 255 33 23 100 20 133 -6z"/>
<path d="M3730 3330 c0 -39 1 -40 35 -40 l36 0 -3 -142 -3 -143 -32 -3 c-30
-3 -33 -6 -33 -38 l0 -36 163 4 c145 3 166 6 204 26 62 32 94 86 100 167 7 82
-14 141 -66 188 -50 45 -107 57 -271 57 l-130 0 0 -40z m296 -59 c61 -37 74
-175 22 -228 -25 -24 -110 -49 -129 -37 -5 3 -9 68 -9 145 l0 139 43 0 c24 0
56 -8 73 -19z"/>
<path d="M2700 2615 c0 -32 2 -35 30 -35 l30 0 0 -145 0 -145 -31 0 c-29 0
-30 -2 -27 -37 l3 -38 95 0 95 0 3 38 c3 35 2 37 -27 37 l-31 0 0 122 c0 105
2 120 13 103 7 -11 51 -84 96 -162 l83 -143 49 0 49 0 0 185 0 185 30 0 c28 0
30 3 30 35 l0 35 -100 0 -100 0 0 -35 c0 -32 2 -35 30 -35 l30 0 0 -97 c0 -53
-3 -94 -6 -90 -3 3 -38 61 -78 129 l-71 123 -98 3 -97 3 0 -36z"/>
<path d="M4930 2615 c0 -31 3 -35 25 -35 l25 0 0 -145 0 -145 -25 0 c-22 0
-25 -4 -25 -40 l0 -40 90 0 90 0 0 34 c0 25 -5 35 -20 39 -16 4 -20 14 -20 46
0 23 2 41 4 41 2 0 34 -36 70 -80 65 -78 68 -80 111 -80 l45 0 0 40 c0 35 -3
40 -22 40 -14 1 -37 17 -61 45 l-38 44 38 36 c21 19 48 38 61 41 16 5 22 14
22 35 l0 29 -95 0 -95 0 0 -30 c0 -27 3 -30 33 -30 l32 0 -45 -40 c-25 -21
-48 -39 -52 -40 -5 0 -8 61 -8 135 l0 135 -70 0 -70 0 0 -35z"/>
<path d="M3633 2597 c-29 -21 -43 -38 -43 -54 0 -14 -6 -23 -15 -23 -10 0 -15
-11 -15 -35 0 -23 5 -35 14 -35 11 0 15 -22 18 -101 3 -92 5 -103 27 -120 25
-21 81 -25 112 -9 12 7 19 21 19 40 0 24 -5 29 -27 32 -28 3 -28 4 -31 81 l-3
77 31 0 c28 0 30 3 30 35 0 32 -2 35 -30 35 -30 0 -30 1 -30 55 0 30 -3 55 -7
54 -5 0 -27 -15 -50 -32z"/>
<path d="M3290 2508 c-63 -33 -90 -77 -90 -149 0 -48 4 -63 27 -90 34 -41 79
-59 143 -59 55 0 94 15 124 49 22 24 21 25 -18 38 -24 7 -37 5 -66 -10 -46
-25 -84 -17 -104 22 -9 16 -12 31 -9 35 4 3 55 6 115 6 105 0 108 1 108 23 -1
37 -36 103 -68 126 -47 33 -108 37 -162 9z"/>
<path d="M4400 2508 c-33 -17 -51 -35 -67 -68 -29 -56 -29 -96 0 -150 55 -105
214 -109 278 -8 26 43 23 140 -6 180 -48 64 -133 83 -205 46z m112 -75 c21
-19 25 -100 6 -125 -21 -27 -53 -30 -79 -9 -19 16 -24 29 -24 69 0 27 6 56 14
65 17 22 59 22 83 0z"/>
<path d="M4883 2518 c-17 -4 -41 -20 -52 -34 l-21 -27 0 32 0 31 -75 0 -75 0
0 -34 c0 -30 3 -35 28 -38 27 -3 27 -4 30 -80 l3 -78 -31 0 c-28 0 -30 -2 -30
-40 l0 -41 108 3 107 3 0 35 c0 32 -3 35 -32 38 -37 4 -39 13 -22 74 10 39 48
68 89 68 17 0 20 6 20 44 0 25 -3 47 -7 49 -5 2 -22 0 -40 -5z"/>
<path d="M3780 2485 c0 -27 4 -35 18 -35 14 0 26 -26 57 -120 l39 -121 45 3
45 3 27 85 c16 48 30 78 33 70 3 -8 16 -46 29 -85 l24 -70 44 -3 44 -3 39 117
c28 86 43 118 57 121 14 4 19 14 19 39 l0 34 -75 0 -75 0 0 -35 c0 -28 4 -35
20 -35 24 0 24 6 1 -55 -12 -32 -21 -45 -25 -35 -3 8 -16 47 -29 85 l-24 70
-43 0 -43 0 -26 -77 c-14 -42 -29 -79 -32 -82 -3 -3 -12 17 -21 44 -14 42 -14
50 -2 50 9 0 14 12 14 35 l0 35 -80 0 -80 0 0 -35z"/>
<path d="M2540 2096 c-96 -21 -176 -78 -224 -160 -22 -37 -39 -49 -152 -105
-88 -43 -135 -60 -151 -57 -14 4 -46 -5 -87 -26 l-65 -32 -28 24 c-15 14 -21
17 -14 8 17 -23 15 -23 -43 7 -155 78 -335 -28 -336 -197 0 -42 -1 -43 -53
-66 -28 -12 -56 -22 -60 -22 -5 0 -109 -50 -233 -110 l-224 -110 -37 20 c-21
11 -51 20 -68 20 -63 0 -135 -71 -135 -133 0 -43 29 -97 64 -118 84 -51 206
11 206 104 0 20 14 30 93 65 51 24 101 41 112 40 23 -3 154 44 138 49 -6 2
-37 -8 -68 -22 -116 -51 -59 -18 116 69 l180 88 43 -40 c149 -137 386 -29 386
175 0 27 10 34 183 122 l182 93 8 -53 c29 -198 199 -328 393 -297 66 10 114
33 173 82 24 20 48 33 54 29 30 -18 257 -186 257 -190 0 -7 -44 22 -130 87
-85 64 -150 108 -135 93 32 -34 283 -214 271 -195 -16 27 27 5 100 -50 51 -38
51 -39 47 -86 -8 -83 47 -140 140 -143 58 -3 93 20 118 75 17 39 26 46 104 80
47 20 146 66 219 102 l134 65 33 -20 c40 -25 96 -27 127 -5 12 8 30 31 40 51
16 31 35 43 148 94 71 33 135 57 143 54 9 -3 12 -3 8 1 -6 7 39 44 54 44 4 0
14 -20 23 -44 49 -128 217 -187 330 -116 l47 30 72 -50 c40 -28 127 -90 195
-137 l122 -86 0 -53 c0 -87 33 -160 104 -230 75 -74 136 -99 241 -98 126 0
238 72 295 188 17 33 33 85 37 114 4 36 11 56 22 60 9 3 37 19 63 35 26 15 53
25 59 21 7 -4 9 -3 6 3 -4 6 13 23 36 40 84 59 439 264 450 260 12 -4 67 19
67 29 0 2 -13 -2 -30 -11 -16 -9 -30 -14 -30 -11 0 2 48 32 108 66 59 35 116
71 127 80 11 10 59 40 106 68 l86 50 29 -19 c36 -23 104 -25 145 -3 40 20 73
92 64 137 -18 83 -97 132 -174 108 -46 -13 -76 -47 -93 -103 -12 -41 -47 -67
-183 -137 -33 -17 -98 -56 -145 -85 -47 -30 -182 -112 -300 -184 -206 -124
-271 -158 -256 -133 7 10 -74 -34 -119 -65 -29 -20 -39 -17 -59 17 -10 17 -20
28 -23 25 -3 -2 6 -20 19 -40 l24 -35 30 18 c68 41 128 74 119 64 -5 -5 -44
-31 -87 -56 l-76 -45 -7 25 c-9 37 -111 135 -170 163 -71 35 -189 40 -266 11
-66 -25 -131 -78 -169 -138 l-27 -42 -104 75 c-57 41 -138 102 -180 135 l-77
61 11 34 c17 57 -7 138 -58 193 -23 25 -40 53 -38 61 3 11 2 12 -4 2 -8 -10
-17 -9 -47 3 -39 17 -96 14 -164 -7 -44 -13 -98 -62 -123 -109 -19 -38 -56
-58 -78 -45 -12 8 -87 -21 -78 -30 3 -3 19 2 37 11 18 9 34 15 36 12 2 -2 -68
-37 -157 -76 -117 -53 -164 -70 -172 -62 -6 6 -7 11 -3 11 5 0 3 7 -4 15 -7 8
-17 15 -23 15 -6 0 -2 -6 8 -14 17 -12 13 -13 -31 -9 -60 5 -108 -21 -129 -70
-14 -35 -9 -32 -200 -109 -27 -11 -95 -42 -152 -68 -88 -42 -104 -46 -114 -33
-26 31 -71 46 -122 39 -50 -5 -52 -5 -149 65 -54 39 -100 74 -103 79 -3 4 -56
45 -120 90 -106 77 -114 84 -103 104 7 11 12 58 13 102 0 74 -3 88 -37 153
-20 39 -35 71 -33 71 9 0 58 -94 70 -133 8 -23 14 -33 14 -22 1 41 -71 171
-89 160 -5 -3 -24 8 -43 25 -78 68 -196 98 -297 76z"/>
</g>
</svg>
